# xmcd
#
# Track frame offsets: 
#        150
#        56695
#        97950
#        151501
#        223221
#
# Disc length: 3234 seconds
#
# Revision: 1
# Processed by: cddbd v1.5.2PL0 Copyright (c) Steve Scherf et al.
# Submitted via: ExactAudioCopy v1.0b6
#
DISCID=390ca005
DTITLE=Takayanagi Masayuki - Solo
DYEAR=1982
DGENRE=Jazz
TTITLE0=Lonely Woman
TTITLE1=Karry's Trance
TTITLE2=Theme of Ayler
TTITLE3=Song for Che
TTITLE4=Lennie's Pennies
EXTD=YEAR: 1982
EXTT0=
EXTT1=
EXTT2=
EXTT3=
EXTT4=
PLAYORDER=
